<svg aria-hidden="true" style="position: absolute; width: 0; height: 0; overflow: hidden;" version="1.1" xmlns="http://www.w3.org/2000/svg" xmlns:xlink="http://www.w3.org/1999/xlink">
	<defs>
		<symbol id="icon-linkedin-1" viewBox="0 0 32 32">
			<path fill="#afb1b8" style="fill: var(--color1, #afb1b8)" d="M31.992 32v-0.001h0.008v-11.736c0-5.741-1.236-10.164-7.948-10.164-3.227 0-5.392 1.771-6.276 3.449h-0.093v-2.913h-6.364v21.364h6.627v-10.579c0-2.785 0.528-5.479 3.977-5.479 3.399 0 3.449 3.179 3.449 5.657v10.401h6.62z">
			</path>
			<path fill="#afb1b8" style="fill: var(--color1, #afb1b8)" d="M0.528 10.636h6.635v21.364h-6.635v-21.364z">
			</path>
			<path fill="#afb1b8" style="fill: var(--color1, #afb1b8)" d="M3.843 0c-2.121 0-3.843 1.721-3.843 3.843s1.721 3.879 3.843 3.879c2.121 0 3.843-1.757 3.843-3.879-0.001-2.121-1.723-3.843-3.843-3.843v0z">
			</path>
		</symbol>
		<symbol id="icon-facebook-1" viewBox="0 0 32 32">
			<path fill="#afb1b8" style="fill: var(--color1, #afb1b8)" d="M21.329 5.313h2.921v-5.088c-0.504-0.069-2.237-0.225-4.256-0.225-4.212 0-7.097 2.649-7.097 7.519v4.481h-4.648v5.688h4.648v14.312h5.699v-14.311h4.46l0.708-5.688h-5.169v-3.919c0.001-1.644 0.444-2.769 2.735-2.769z">
			</path>
		</symbol>
		<symbol id="icon-twitter-1" viewBox="0 0 32 32">
			<path fill="#afb1b8" style="fill: var(--color1, #afb1b8)" d="M32 6.078c-1.19 0.522-2.458 0.868-3.78 1.036 1.36-0.812 2.398-2.088 2.886-3.626-1.268 0.756-2.668 1.29-4.16 1.588-1.204-1.282-2.92-2.076-4.792-2.076-3.632 0-6.556 2.948-6.556 6.562 0 0.52 0.044 1.020 0.152 1.496-5.454-0.266-10.28-2.88-13.522-6.862-0.566 0.982-0.898 2.106-0.898 3.316 0 2.272 1.17 4.286 2.914 5.452-1.054-0.020-2.088-0.326-2.964-0.808 0 0.020 0 0.046 0 0.072 0 3.188 2.274 5.836 5.256 6.446-0.534 0.146-1.116 0.216-1.72 0.216-0.42 0-0.844-0.024-1.242-0.112 0.85 2.598 3.262 4.508 6.13 4.57-2.232 1.746-5.066 2.798-8.134 2.798-0.538 0-1.054-0.024-1.57-0.090 2.906 1.874 6.35 2.944 10.064 2.944 12.072 0 18.672-10 18.672-18.668 0-0.29-0.010-0.57-0.024-0.848 1.302-0.924 2.396-2.078 3.288-3.406z">
			</path>
		</symbol>
		<symbol id="icon-Ellipse" viewBox="0 0 32 32">
			<path d="M32 16c0 4.418-1.791 8.418-4.686 11.314s-6.895 4.686-11.314 4.686-8.418-1.791-11.314-4.686c-2.895-2.895-4.686-6.895-4.686-11.314s1.791-8.418 4.686-11.314 6.895-4.686 11.314-4.686c4.418 0 8.418 1.791 11.314 4.686s4.686 6.895 4.686 11.314z">
			</path>
			<path d="M23.258 13.004c-0.034-0.773-0.159-1.304-0.338-1.765-0.185-0.489-0.469-0.926-0.841-1.29-0.364-0.369-0.804-0.656-1.287-0.838-0.463-0.179-0.992-0.304-1.764-0.338-0.779-0.037-1.026-0.046-3.001-0.046s-2.222 0.009-2.998 0.043c-0.773 0.034-1.304 0.159-1.764 0.338-0.489 0.185-0.926 0.469-1.29 0.841-0.369 0.364-0.656 0.804-0.838 1.287-0.179 0.463-0.304 0.992-0.338 1.764-0.037 0.779-0.045 1.026-0.045 3.001s0.008 2.222 0.043 2.998c0.034 0.773 0.159 1.304 0.338 1.765 0.185 0.489 0.472 0.926 0.841 1.29 0.364 0.369 0.804 0.656 1.287 0.838 0.463 0.179 0.992 0.304 1.765 0.338 0.776 0.034 1.023 0.043 2.998 0.043s2.222-0.008 2.998-0.043c0.773-0.034 1.304-0.159 1.764-0.338 0.978-0.378 1.75-1.151 2.128-2.128 0.179-0.463 0.304-0.992 0.338-1.765 0.034-0.776 0.043-1.023 0.043-2.998s-0.003-2.222-0.037-2.998zM21.949 18.942c-0.031 0.71-0.151 1.094-0.25 1.35-0.244 0.634-0.747 1.137-1.381 1.381-0.256 0.099-0.642 0.219-1.35 0.25-0.767 0.034-0.997 0.043-2.938 0.043s-2.174-0.008-2.938-0.043c-0.71-0.031-1.094-0.15-1.35-0.25-0.315-0.116-0.602-0.301-0.835-0.543-0.242-0.236-0.426-0.52-0.543-0.835-0.099-0.256-0.219-0.642-0.25-1.35-0.034-0.767-0.043-0.997-0.043-2.938s0.008-2.174 0.043-2.938c0.031-0.71 0.151-1.094 0.25-1.35 0.117-0.315 0.301-0.602 0.546-0.835 0.236-0.242 0.52-0.426 0.835-0.543 0.256-0.099 0.642-0.219 1.35-0.25 0.767-0.034 0.997-0.043 2.938-0.043 1.944 0 2.174 0.008 2.938 0.043 0.71 0.031 1.094 0.151 1.35 0.25 0.315 0.116 0.602 0.301 0.835 0.543 0.241 0.236 0.426 0.52 0.543 0.835 0.099 0.256 0.219 0.642 0.25 1.35 0.034 0.767 0.043 0.997 0.043 2.938s-0.009 2.168-0.043 2.935z">
			</path>
			<path d="M16.027 12.265c-2.063 0-3.736 1.674-3.736 3.736s1.674 3.736 3.736 3.736c2.063 0 3.737-1.674 3.737-3.736s-1.674-3.736-3.737-3.736zM16.027 18.425c-1.338 0-2.424-1.085-2.424-2.424s1.086-2.424 2.424-2.424c1.338 0 2.424 1.085 2.424 2.424s-1.085 2.424-2.424 2.424z">
			</path>
			<path d="M20.784 12.117c0 0.482-0.391 0.872-0.872 0.872s-0.872-0.391-0.872-0.872c0-0.482 0.391-0.872 0.872-0.872s0.872 0.39 0.872 0.872z">
			</path>
		</symbol>
		<symbol id="icon-envelope-hover" viewBox="0 0 32 32">
			<path d="M29 4h-26c-1.654 0-3 1.346-3 3v18c0 1.654 1.346 3 3 3h26c1.654 0 3-1.346 3-3v-18c0-1.654-1.346-3-3-3zM29 6c0.136 0 0.265 0.028 0.383 0.077l-13.383 11.599-13.383-11.599c0.118-0.049 0.247-0.077 0.383-0.077h26zM29 26h-26c-0.552 0-1-0.448-1-1v-16.81l13.345 11.565c0.188 0.163 0.422 0.244 0.655 0.244s0.467-0.081 0.655-0.244l13.345-11.565v16.81c0 0.552-0.448 1-1 1z">
			</path>
		</symbol>
		<symbol id="icon-smartphone" viewBox="0 0 32 32">
			<path fill="#757575" style="fill: var(--color2, #757575)" d="M23 0h-14c-1.654 0-3 1.346-3 3v26c0 1.654 1.346 3 3 3h14c1.654 0 3-1.346 3-3v-26c0-1.654-1.346-3-3-3zM9 2h14c0.552 0 1 0.448 1 1v21h-16v-21c0-0.552 0.448-1 1-1zM23 30h-14c-0.552 0-1-0.448-1-1v-3h16v3c0 0.552-0.448 1-1 1z">
			</path>
			<path fill="#757575" style="fill: var(--color2, #757575)" d="M10.707 27.478c0.391 0.365 0.391 0.956 0 1.321s-1.024 0.365-1.414 0c-0.391-0.365-0.391-0.956 0-1.321s1.024-0.365 1.414 0z">
			</path>
		</symbol>
	</defs>
</svg>
